<svg xmlns="http://www.w3.org/2000/svg" viewBox="0 0 100 100" width="100" height="100">
  <defs>
    <linearGradient id="grad1" x1="0%" y1="0%" x2="100%" y2="100%">
      <stop offset="0%" style="stop-color:#3b82f6;stop-opacity:1" />
      <stop offset="100%" style="stop-color:#8b5cf6;stop-opacity:1" />
    </linearGradient>
    <linearGradient id="grad2" x1="0%" y1="100%" x2="100%" y2="0%">
      <stop offset="0%" style="stop-color:#10b981;stop-opacity:1" />
      <stop offset="100%" style="stop-color:#3b82f6;stop-opacity:1" />
    </linearGradient>
  </defs>
  <!-- Background Shield or Outer ring -->
  <path d="M50 5 L85 20 V50 C85 75 50 95 50 95 C50 95 15 75 15 50 V20 Z" fill="url(#grad1)" opacity="0.15"/>
  <!-- Verification Mark (Double ring/Shield combo) -->
  <path d="M50 12 C29 12 12 29 12 50 C12 71 29 88 50 88 C71 88 88 71 88 50 C88 29 71 12 50 12 Z M50 82 C32.3 82 18 67.7 18 50 C18 32.3 32.3 18 50 18 C67.7 18 82 32.3 82 50 C82 67.7 67.7 82 50 82 Z" fill="url(#grad1)"/>
  <!-- Checkmark -->
  <path d="M38 48 L46 56 L62 38" fill="none" stroke="url(#grad2)" stroke-width="8" stroke-linecap="round" stroke-linejoin="round"/>
</svg>
